<svg preserveAspectRatio="none" overflow="visible" style="display: block;" width="50" height="50" viewBox="0 0 50 50" fill="none" xmlns="http://www.w3.org/2000/svg">
<g id="Icon" clip-path="url(#clip0_0_12)">
<path id="Vector" d="M39.4737 0.877192H10.5263C5.19725 0.877192 0.877192 5.19725 0.877192 10.5263V39.4737C0.877192 44.8028 5.19725 49.1228 10.5263 49.1228H39.4737C44.8028 49.1228 49.1228 44.8028 49.1228 39.4737V10.5263C49.1228 5.19725 44.8028 0.877192 39.4737 0.877192Z" fill="#111111" stroke="white" stroke-width="1.75439"/>
<path id="Vector_2" d="M22.082 20.8797V19.5677C21.6261 19.5131 21.1704 19.4766 20.6964 19.4766C15.0444 19.4766 10.4316 24.0687 10.4316 29.7358C10.4316 33.1981 12.1637 36.2777 14.8074 38.1363C13.0935 36.2958 12.0543 33.8541 12.0543 31.1572C12.0725 25.5629 16.5394 21.0073 22.082 20.8797Z" fill="#00FAF0"/>
<path id="Vector_3" d="M22.3196 35.8032C24.8356 35.8032 26.8958 33.7987 26.9871 31.3024V8.97993H31.0711C30.9798 8.52437 30.9435 8.05059 30.9435 7.55859H25.3643V29.881C25.2732 32.3775 23.213 34.3819 20.697 34.3819C19.913 34.3819 19.1655 34.1815 18.5273 33.8352C19.3842 35.0379 20.7698 35.8032 22.3196 35.8032Z" fill="#00FAF0"/>
<path id="Vector_4" d="M38.7086 16.5611V15.322C37.1589 15.322 35.7004 14.8664 34.4788 14.0646C35.5728 15.3038 37.0495 16.1966 38.7086 16.5611Z" fill="#00FAF0"/>
<path id="Vector_5" d="M34.4992 14.0664C33.3141 12.6998 32.5848 10.9322 32.5848 8.98242H31.0898C31.491 11.0962 32.7488 12.9184 34.4992 14.0664Z" fill="#FE2C55"/>
<path id="Vector_6" d="M20.6973 25.0337C18.1083 25.0337 16.0117 27.1292 16.0117 29.7168C16.0117 31.5208 17.0327 33.0697 18.5277 33.8533C17.9807 33.0879 17.6343 32.1404 17.6343 31.1199C17.6343 28.5323 19.7311 26.4368 22.32 26.4368C22.7941 26.4368 23.2681 26.5097 23.7057 26.6554V20.97C23.2498 20.9154 22.7941 20.8789 22.32 20.8789C22.2471 20.8789 22.156 20.8789 22.083 20.8789V25.2523C21.6455 25.1065 21.1896 25.0337 20.6973 25.0337Z" fill="#FE2C55"/>
<path id="Vector_7" d="M38.7103 16.5605V20.8974C35.8113 20.8974 33.1494 19.9682 30.9615 18.401V29.717C30.9615 35.366 26.367 39.9763 20.6969 39.9763C18.509 39.9763 16.4853 39.2838 14.8262 38.1175C16.704 40.122 19.3659 41.3977 22.3378 41.3977C27.9898 41.3977 32.6025 36.8055 32.6025 31.1384V19.8223C34.7903 21.3894 37.4704 22.3188 40.3512 22.3188V16.7428C39.7859 16.7245 39.239 16.6699 38.7103 16.5605Z" fill="#FE2C55"/>
<path id="Vector_8" d="M30.9601 29.7175V18.4015C33.148 19.9685 35.8281 20.8979 38.7089 20.8979V16.561C37.0315 16.1965 35.5729 15.3036 34.479 14.0645C32.7286 12.9347 31.4706 11.1125 31.0877 8.98047H27.0037V31.3029C26.9126 33.7994 24.8524 35.8037 22.3364 35.8037C20.7684 35.8037 19.3827 35.0385 18.544 33.854C17.049 33.0704 16.028 31.5032 16.028 29.7175C16.028 27.13 18.1247 25.0344 20.7136 25.0344C21.1877 25.0344 21.6617 25.1072 22.0994 25.253V20.8796C16.5567 21.0072 12.0898 25.5629 12.0898 31.1206C12.0898 33.8175 13.1291 36.2776 14.8429 38.0997C16.502 39.266 18.544 39.9585 20.7136 39.9585C26.3474 39.9767 30.9601 35.3665 30.9601 29.7175Z" fill="white"/>
</g>
<defs>
<clipPath id="clip0_0_12">
<rect width="50" height="50" fill="white"/>
</clipPath>
</defs>
</svg>
