<svg preserveAspectRatio="none" overflow="visible" style="display: block;" width="12" height="12" viewBox="0 0 12 12" fill="none" xmlns="http://www.w3.org/2000/svg">
<g id="nav-icon">
<g id="Vector">
<path d="M4.5 4.5C4.77614 4.5 5 4.72386 5 5V6C5 6.27614 4.77614 6.5 4.5 6.5C4.22386 6.5 4 6.27614 4 6V5C4 4.72386 4.22386 4.5 4.5 4.5Z" fill="#1C1F23" fill-opacity="0.8"/>
<path d="M7.5 4.5C7.77614 4.5 8 4.72386 8 5V6C8 6.27614 7.77614 6.5 7.5 6.5C7.22386 6.5 7 6.27614 7 6V5C7 4.72386 7.22386 4.5 7.5 4.5Z" fill="#1C1F23" fill-opacity="0.8"/>
<path fill-rule="evenodd" clip-rule="evenodd" d="M9.5 1C10.3284 1 11 1.67157 11 2.5V7.5C11 9.433 9.433 11 7.5 11H4.5C2.567 11 1 9.433 1 7.5V4.5C1 2.567 2.567 1 4.5 1H9.5ZM4.5 2C3.11929 2 2 3.11929 2 4.5V7.5C2 8.88071 3.11929 10 4.5 10H7.5C8.88071 10 10 8.88071 10 7.5V2.5C10 2.22386 9.77614 2 9.5 2H4.5Z" fill="#1C1F23" fill-opacity="0.8"/>
</g>
</g>
</svg>
